<?xml version="1.0" encoding="utf-8"?>
<!-- Generator: Adobe Illustrator 16.0.0, SVG Export Plug-In . SVG Version: 6.00 Build 0)  -->
<!DOCTYPE svg PUBLIC "-//W3C//DTD SVG 1.1//EN" "http://www.w3.org/Graphics/SVG/1.1/DTD/svg11.dtd">
<svg version="1.1" id="Layer_1" xmlns="http://www.w3.org/2000/svg" xmlns:xlink="http://www.w3.org/1999/xlink" x="0px" y="0px"
	 width="56.69px" height="56.69px" viewBox="0 0 56.69 56.69" enable-background="new 0 0 56.69 56.69" xml:space="preserve">
<path fill="#FFFFFF" d="M51.367,31.099c1.753-4.434,1.894-9.625,0.645-16.131h-3.004h-1.017v-1.016V9.397l-3.363-3.363l-3.361,3.363
	v4.555v1.016h-1.018h-6.792h-1.016v-1.016V7.064l-4.01-4.007l-4.009,4.007v6.888v1.016h-1.016h-6.793h-1.016v-1.016V9.397
	l-3.363-3.363L8.872,9.397v4.555v1.016H7.855H4.85c-1.248,6.506-1.108,11.697,0.644,16.131c1.82,4.601,5.413,8.447,11.033,12.163
	c0.597,0.394,0.979,0.644,1.381,0.905c3.57,2.323,7.971,5.193,10.523,8.631c2.552-3.438,6.954-6.308,10.525-8.631
	c0.399-0.262,0.782-0.512,1.378-0.905C45.957,39.546,49.548,35.699,51.367,31.099 M11.233,22.036
	c-0.007,0.295-0.008,0.584-0.007,0.871c0.027,4.229,1.072,8.473,3.208,11.583c1.81,2.633,4.553,4.519,8.476,5.028V22.036h2.209
	v17.619v1.214v0.983c-0.153,0-0.301,0-0.444-0.004c-5.719-0.122-9.597-2.532-12.061-6.116c-2.401-3.496-3.558-8.18-3.586-12.816
	c-0.003-0.298,0-0.59,0.005-0.88H11.233z M9.028,17.619h38.809v2.209H29.535v28.439h-2.208V19.828H9.028V17.619z M31.745,41.853
	V23.135v-1.099h1.099h14.012h0.005h0.935c0.011,0.123,0.02,0.284,0.026,0.484c0.009,0.24,0.016,0.412,0.016,0.523
	c0,7.299-5.578,13.003-12.781,13.606v-2.216c5.58-0.551,9.955-4.69,10.511-10.197H33.944v17.616H31.745z M53.834,13.749
	c1.499,7.288,1.4,13.095-0.577,18.095c-1.983,5.014-5.823,9.159-11.803,13.111c-0.288,0.188-0.839,0.545-1.396,0.91
	c-3.843,2.504-8.692,5.661-10.747,9.275l-0.879,1.55l-0.88-1.55c-2.054-3.614-6.904-6.771-10.747-9.275
	c-0.558-0.365-1.108-0.722-1.395-0.91c-5.979-3.952-9.821-8.098-11.802-13.111c-1.98-5.003-2.079-10.807-0.579-18.095l0.166-0.814
	H4.02H6.84V8.977V8.556l0.297-0.297l4.378-4.379l0.718-0.718l0.719,0.718l4.38,4.379l0.297,0.297v0.421v3.958h4.761V6.643v-0.42
	l0.297-0.295l5.025-5.025l0.718-0.718l0.718,0.718l5.025,5.025l0.298,0.295v0.42v6.292h4.758V8.977V8.556l0.299-0.297l4.38-4.379
	l0.719-0.718l0.718,0.718l4.378,4.379l0.299,0.297v0.421v3.958h2.821h0.823L53.834,13.749z"/>
</svg>
